<?xml version="1.0" encoding="iso-8859-1"?>
<!-- Generator: Adobe Illustrator 19.0.0, SVG Export Plug-In . SVG Version: 6.00 Build 0)  -->
<svg version="1.1" id="Layer_1" xmlns="http://www.w3.org/2000/svg" xmlns:xlink="http://www.w3.org/1999/xlink" x="0px" y="0px"
	 viewBox="0 0 512 512" style="enable-background:new 0 0 512 512;" xml:space="preserve">
<circle style="fill:#FF8C8A;" cx="256" cy="256" r="256"/>
<path style="fill:#FA7876;" d="M510.31,226.638l-81.727-81.75l-50.393-1.244l-6.314,6.243h-38.094v53.726H116.229l-7.792-19.716
	H82.736l62.246,157.139l30.818,30.818l-2.464,2.464l132.776,132.776C423.49,483.788,512,380.233,512,256
	C512,246.072,511.413,236.261,510.31,226.638z"/>
<path style="fill:#F7F7F8;" d="M82.736,183.897h25.701l7.792,19.716h217.554v-39.079V149.91h25.701h24.809v14.623h-24.809v150.802
	v25.701h-25.701H170.682h-25.701L82.736,183.897z M178.357,315.335v-25.349H150.45l10.046,25.349H178.357z M178.357,277.852v-24.997
	h-42.624l9.905,24.997H178.357z M178.357,240.72v-24.973h-57.34l9.905,24.973H178.357z M190.492,215.747v24.973h36.052v-24.973
	H190.492z M190.492,252.855v24.997h36.052v-24.997H190.492z M190.492,289.986v25.349h36.052v-25.349H190.492z M274.753,315.335
	v-25.349h-36.075v25.349H274.753z M274.753,277.852v-24.997h-36.075v24.997H274.753z M274.753,240.72v-24.973h-36.075v24.973
	H274.753z M286.888,215.747v24.973h46.895v-24.973H286.888z M286.888,252.855v24.997h46.895v-24.997H286.888z M286.888,289.986
	v25.349h46.895v-25.349H286.888z"/>
<g>
	<path style="fill:#58515E;" d="M372.863,143.644h53.186c1.76,0,3.216,1.455,3.216,3.216v20.702c0,1.784-1.455,3.216-3.216,3.216
		h-53.186c-1.76,0-3.216-1.432-3.216-3.216v-20.702C369.647,145.099,371.103,143.644,372.863,143.644z"/>
	<circle style="fill:#58515E;" cx="191.032" cy="358.733" r="23.589"/>
</g>
<circle style="fill:#9B989E;" cx="191.032" cy="358.733" r="14.552"/>
<circle style="fill:#68606E;" cx="191.032" cy="358.733" r="6.971"/>
<circle style="fill:#58515E;" cx="337.515" cy="358.733" r="23.589"/>
<circle style="fill:#9B989E;" cx="337.515" cy="358.733" r="14.552"/>
<circle style="fill:#68606E;" cx="337.515" cy="358.733" r="6.971"/>
<g>
</g>
<g>
</g>
<g>
</g>
<g>
</g>
<g>
</g>
<g>
</g>
<g>
</g>
<g>
</g>
<g>
</g>
<g>
</g>
<g>
</g>
<g>
</g>
<g>
</g>
<g>
</g>
<g>
</g>
</svg>
